<svg width="92" height="36" viewBox="0 0 92 36" fill="none" xmlns="http://www.w3.org/2000/svg">
<rect x="0.000427246" width="92" height="36" rx="4" fill="#D5D5D5"/>
<path d="M18.8804 16.148H17.0564V18.5H14.5284V16.148H8.49643V14.404L13.7764 7.3H16.4964L11.6004 14.036H14.6084V11.94H17.0564V14.036H18.8804V16.148ZM21.4402 18.628C21.0028 18.628 20.6348 18.4787 20.3362 18.18C20.0375 17.8813 19.8882 17.508 19.8882 17.06C19.8882 16.6013 20.0375 16.2333 20.3362 15.956C20.6348 15.668 21.0028 15.524 21.4402 15.524C21.8775 15.524 22.2455 15.668 22.5442 15.956C22.8428 16.2333 22.9922 16.6013 22.9922 17.06C22.9922 17.508 22.8428 17.8813 22.5442 18.18C22.2455 18.4787 21.8775 18.628 21.4402 18.628ZM28.0917 7.108C29.6597 7.108 30.8863 7.588 31.7717 8.548C32.657 9.49733 33.0997 10.868 33.0997 12.66C33.0997 13.9293 32.8597 15.0173 32.3797 15.924C31.9103 16.8307 31.2437 17.5187 30.3797 17.988C29.5157 18.4573 28.5183 18.692 27.3877 18.692C26.7903 18.692 26.2197 18.628 25.6757 18.5C25.1317 18.3613 24.6677 18.1693 24.2837 17.924L25.2437 16.02C25.7877 16.3933 26.4863 16.58 27.3397 16.58C28.289 16.58 29.041 16.3027 29.5957 15.748C30.1503 15.1827 30.449 14.372 30.4917 13.316C29.8197 13.988 28.8917 14.324 27.7077 14.324C26.993 14.324 26.3423 14.18 25.7557 13.892C25.169 13.604 24.705 13.1987 24.3637 12.676C24.0223 12.1427 23.8517 11.5293 23.8517 10.836C23.8517 10.0893 24.0383 9.43333 24.4117 8.868C24.785 8.30267 25.2917 7.87067 25.9317 7.572C26.5823 7.26267 27.3023 7.108 28.0917 7.108ZM28.2837 12.388C28.849 12.388 29.3077 12.2333 29.6597 11.924C30.0223 11.604 30.2037 11.1987 30.2037 10.708C30.2037 10.2173 30.0277 9.81733 29.6757 9.508C29.3343 9.19867 28.8597 9.044 28.2517 9.044C27.697 9.044 27.2437 9.19333 26.8917 9.492C26.5503 9.79067 26.3797 10.196 26.3797 10.708C26.3797 11.22 26.5503 11.6307 26.8917 11.94C27.2437 12.2387 27.7077 12.388 28.2837 12.388Z" fill="black"/>
<path d="M40.8164 18.572C40.1844 18.572 39.6164 18.432 39.1124 18.152C38.6084 17.872 38.2124 17.488 37.9244 17C37.6444 16.504 37.5044 15.944 37.5044 15.32C37.5044 14.696 37.6444 14.14 37.9244 13.652C38.2124 13.156 38.6084 12.772 39.1124 12.5C39.6164 12.22 40.1844 12.08 40.8164 12.08C41.4484 12.08 42.0124 12.22 42.5084 12.5C43.0124 12.772 43.4044 13.156 43.6844 13.652C43.9724 14.14 44.1164 14.696 44.1164 15.32C44.1164 15.944 43.9724 16.504 43.6844 17C43.4044 17.488 43.0124 17.872 42.5084 18.152C42.0124 18.432 41.4484 18.572 40.8164 18.572ZM40.8164 17.564C41.2244 17.564 41.5884 17.472 41.9084 17.288C42.2364 17.096 42.4924 16.832 42.6764 16.496C42.8604 16.152 42.9524 15.76 42.9524 15.32C42.9524 14.88 42.8604 14.492 42.6764 14.156C42.4924 13.812 42.2364 13.548 41.9084 13.364C41.5884 13.18 41.2244 13.088 40.8164 13.088C40.4084 13.088 40.0404 13.18 39.7124 13.364C39.3924 13.548 39.1364 13.812 38.9444 14.156C38.7604 14.492 38.6684 14.88 38.6684 15.32C38.6684 15.76 38.7604 16.152 38.9444 16.496C39.1364 16.832 39.3924 17.096 39.7124 17.288C40.0404 17.472 40.4084 17.564 40.8164 17.564ZM51.6376 12.14V18.5H50.5456V17.54C50.3136 17.868 50.0056 18.124 49.6216 18.308C49.2456 18.484 48.8336 18.572 48.3856 18.572C47.5376 18.572 46.8696 18.34 46.3816 17.876C45.8936 17.404 45.6496 16.712 45.6496 15.8V12.14H46.8016V15.668C46.8016 16.284 46.9496 16.752 47.2456 17.072C47.5416 17.384 47.9656 17.54 48.5176 17.54C49.1256 17.54 49.6056 17.356 49.9576 16.988C50.3096 16.62 50.4856 16.1 50.4856 15.428V12.14H51.6376ZM57.4067 18.128C57.2387 18.272 57.0307 18.384 56.7827 18.464C56.5347 18.536 56.2787 18.572 56.0147 18.572C55.3747 18.572 54.8787 18.4 54.5267 18.056C54.1747 17.712 53.9987 17.22 53.9987 16.58V13.088H52.9187V12.14H53.9987V10.748H55.1507V12.14H56.9747V13.088H55.1507V16.532C55.1507 16.876 55.2347 17.14 55.4027 17.324C55.5787 17.508 55.8267 17.6 56.1467 17.6C56.4987 17.6 56.7987 17.5 57.0467 17.3L57.4067 18.128ZM64.7461 18.572C64.1141 18.572 63.5461 18.432 63.0421 18.152C62.5381 17.872 62.1421 17.488 61.8541 17C61.5741 16.504 61.4341 15.944 61.4341 15.32C61.4341 14.696 61.5741 14.14 61.8541 13.652C62.1421 13.156 62.5381 12.772 63.0421 12.5C63.5461 12.22 64.1141 12.08 64.7461 12.08C65.3781 12.08 65.9421 12.22 66.4381 12.5C66.9421 12.772 67.3341 13.156 67.6141 13.652C67.9021 14.14 68.0461 14.696 68.0461 15.32C68.0461 15.944 67.9021 16.504 67.6141 17C67.3341 17.488 66.9421 17.872 66.4381 18.152C65.9421 18.432 65.3781 18.572 64.7461 18.572ZM64.7461 17.564C65.1541 17.564 65.5181 17.472 65.8381 17.288C66.1661 17.096 66.4221 16.832 66.6061 16.496C66.7901 16.152 66.8821 15.76 66.8821 15.32C66.8821 14.88 66.7901 14.492 66.6061 14.156C66.4221 13.812 66.1661 13.548 65.8381 13.364C65.5181 13.18 65.1541 13.088 64.7461 13.088C64.3381 13.088 63.9701 13.18 63.6421 13.364C63.3221 13.548 63.0661 13.812 62.8741 14.156C62.6901 14.492 62.5981 14.88 62.5981 15.32C62.5981 15.76 62.6901 16.152 62.8741 16.496C63.0661 16.832 63.3221 17.096 63.6421 17.288C63.9701 17.472 64.3381 17.564 64.7461 17.564ZM71.9673 10.472C71.2793 10.472 70.9353 10.844 70.9353 11.588V12.14H72.7833V13.088H70.9593V18.5H69.8073V13.088H68.7273V12.14H69.8073V11.576C69.8073 10.944 69.9913 10.444 70.3593 10.076C70.7273 9.708 71.2433 9.524 71.9073 9.524C72.1633 9.524 72.4033 9.556 72.6273 9.62C72.8513 9.684 73.0433 9.776 73.2033 9.896L72.8553 10.772C72.5913 10.572 72.2953 10.472 71.9673 10.472ZM79.1564 13.352C80.3404 13.352 81.2164 13.584 81.7844 14.048C82.3524 14.504 82.6364 15.128 82.6364 15.92C82.6364 16.424 82.5124 16.88 82.2644 17.288C82.0164 17.696 81.6444 18.02 81.1484 18.26C80.6524 18.5 80.0404 18.62 79.3124 18.62C78.7124 18.62 78.1324 18.536 77.5724 18.368C77.0124 18.192 76.5404 17.952 76.1564 17.648L76.8164 16.436C77.1284 16.692 77.5004 16.896 77.9324 17.048C78.3724 17.192 78.8244 17.264 79.2884 17.264C79.8404 17.264 80.2724 17.152 80.5844 16.928C80.9044 16.696 81.0644 16.38 81.0644 15.98C81.0644 15.548 80.8924 15.224 80.5484 15.008C80.2124 14.784 79.6324 14.672 78.8084 14.672H76.7804L77.2124 10.1H82.1444V11.408H78.5324L78.3524 13.352H79.1564Z" fill="black"/>
<path d="M15.5004 26.94V28.5H8.99643V20.1H15.3444V21.66H10.9284V23.484H14.8284V24.996H10.9284V26.94H15.5004ZM20.9372 28.5L19.5212 26.52L18.0572 28.5H16.0172L18.5012 25.248L16.1012 22.044H18.2012L19.5692 23.928L20.9732 22.044H22.9652L20.5652 25.2L23.0612 28.5H20.9372ZM26.8907 28.596C26.2027 28.596 25.5827 28.456 25.0307 28.176C24.4867 27.888 24.0587 27.492 23.7467 26.988C23.4427 26.484 23.2907 25.912 23.2907 25.272C23.2907 24.632 23.4427 24.06 23.7467 23.556C24.0587 23.052 24.4867 22.66 25.0307 22.38C25.5827 22.092 26.2027 21.948 26.8907 21.948C27.5707 21.948 28.1627 22.092 28.6667 22.38C29.1787 22.66 29.5507 23.064 29.7827 23.592L28.3307 24.372C27.9947 23.78 27.5107 23.484 26.8787 23.484C26.3907 23.484 25.9867 23.644 25.6667 23.964C25.3467 24.284 25.1867 24.72 25.1867 25.272C25.1867 25.824 25.3467 26.26 25.6667 26.58C25.9867 26.9 26.3907 27.06 26.8787 27.06C27.5187 27.06 28.0027 26.764 28.3307 26.172L29.7827 26.964C29.5507 27.476 29.1787 27.876 28.6667 28.164C28.1627 28.452 27.5707 28.596 26.8907 28.596ZM37.1025 25.296C37.1025 25.32 37.0905 25.488 37.0665 25.8H32.1825C32.2705 26.2 32.4785 26.516 32.8065 26.748C33.1345 26.98 33.5425 27.096 34.0305 27.096C34.3665 27.096 34.6625 27.048 34.9185 26.952C35.1825 26.848 35.4265 26.688 35.6505 26.472L36.6465 27.552C36.0385 28.248 35.1505 28.596 33.9825 28.596C33.2545 28.596 32.6105 28.456 32.0505 28.176C31.4905 27.888 31.0585 27.492 30.7545 26.988C30.4505 26.484 30.2985 25.912 30.2985 25.272C30.2985 24.64 30.4465 24.072 30.7425 23.568C31.0465 23.056 31.4585 22.66 31.9785 22.38C32.5065 22.092 33.0945 21.948 33.7425 21.948C34.3745 21.948 34.9465 22.084 35.4585 22.356C35.9705 22.628 36.3705 23.02 36.6585 23.532C36.9545 24.036 37.1025 24.624 37.1025 25.296ZM33.7545 23.364C33.3305 23.364 32.9745 23.484 32.6865 23.724C32.3985 23.964 32.2225 24.292 32.1585 24.708H35.3385C35.2745 24.3 35.0985 23.976 34.8105 23.736C34.5225 23.488 34.1705 23.364 33.7545 23.364ZM38.3488 19.596H40.2208V28.5H38.3488V19.596ZM41.9582 19.596H43.8302V28.5H41.9582V19.596ZM51.8916 25.296C51.8916 25.32 51.8796 25.488 51.8556 25.8H46.9716C47.0596 26.2 47.2676 26.516 47.5956 26.748C47.9236 26.98 48.3316 27.096 48.8196 27.096C49.1556 27.096 49.4516 27.048 49.7076 26.952C49.9716 26.848 50.2156 26.688 50.4396 26.472L51.4356 27.552C50.8276 28.248 49.9396 28.596 48.7716 28.596C48.0436 28.596 47.3996 28.456 46.8396 28.176C46.2796 27.888 45.8476 27.492 45.5436 26.988C45.2396 26.484 45.0876 25.912 45.0876 25.272C45.0876 24.64 45.2356 24.072 45.5316 23.568C45.8356 23.056 46.2476 22.66 46.7676 22.38C47.2956 22.092 47.8836 21.948 48.5316 21.948C49.1636 21.948 49.7356 22.084 50.2476 22.356C50.7596 22.628 51.1596 23.02 51.4476 23.532C51.7436 24.036 51.8916 24.624 51.8916 25.296ZM48.5436 23.364C48.1196 23.364 47.7636 23.484 47.4756 23.724C47.1876 23.964 47.0116 24.292 46.9476 24.708H50.1276C50.0636 24.3 49.8876 23.976 49.5996 23.736C49.3116 23.488 48.9596 23.364 48.5436 23.364ZM57.0619 21.948C57.8619 21.948 58.5059 22.188 58.9939 22.668C59.4899 23.148 59.7379 23.86 59.7379 24.804V28.5H57.8659V25.092C57.8659 24.58 57.7539 24.2 57.5299 23.952C57.3059 23.696 56.9819 23.568 56.5579 23.568C56.0859 23.568 55.7099 23.716 55.4299 24.012C55.1499 24.3 55.0099 24.732 55.0099 25.308V28.5H53.1379V22.044H54.9259V22.8C55.1739 22.528 55.4819 22.32 55.8499 22.176C56.2179 22.024 56.6219 21.948 57.0619 21.948ZM65.5987 28.188C65.4147 28.324 65.1867 28.428 64.9147 28.5C64.6507 28.564 64.3707 28.596 64.0747 28.596C63.3067 28.596 62.7107 28.4 62.2867 28.008C61.8707 27.616 61.6627 27.04 61.6627 26.28V23.628H60.6667V22.188H61.6627V20.616H63.5347V22.188H65.1427V23.628H63.5347V26.256C63.5347 26.528 63.6027 26.74 63.7387 26.892C63.8827 27.036 64.0827 27.108 64.3387 27.108C64.6347 27.108 64.8867 27.028 65.0947 26.868L65.5987 28.188Z" fill="black"/>
</svg>
