<svg width="158" height="36" viewBox="0 0 158 36" fill="none" xmlns="http://www.w3.org/2000/svg">
<rect x="-0.000427246" width="158.001" height="36" rx="4" fill="#D5D5D5"/>
<g clip-path="url(#clip0_1_1087)">
<path d="M21.9996 4H7.99957V18H21.9996V4Z" fill="#00B67A"/>
<path d="M36.9996 4H22.9996V18H36.9996V4Z" fill="#00B67A"/>
<path d="M51.9996 4H37.9996V18H51.9996V4Z" fill="#00B67A"/>
<path d="M66.9996 4H52.9996V18H66.9996V4Z" fill="#00B67A"/>
<path d="M81.9996 4H67.9996V18H81.9996V4Z" fill="#00B67A"/>
<path d="M15.0129 13.4323L17.1472 12.8927L18.0389 15.6344L15.0129 13.4323ZM19.9247 9.88854H16.1678L15.0129 6.35938L13.8581 9.88854H10.1011L13.1418 12.076L11.9869 15.6052L15.0275 13.4177L16.8987 12.076L19.9247 9.88854Z" fill="#D5D5D5"/>
<path d="M30.216 13.4323L32.3503 12.8927L33.242 15.6344L30.216 13.4323ZM35.1278 9.88854H31.3709L30.216 6.35938L29.0612 9.88854H25.3043L28.3449 12.076L27.19 15.6052L30.2307 13.4177L32.1018 12.076L35.1278 9.88854Z" fill="#D5D5D5"/>
<path d="M45.4192 13.4323L47.5535 12.8927L48.4452 15.6344L45.4192 13.4323ZM50.3309 9.88854H46.574L45.4192 6.35938L44.2643 9.88854H40.5074L43.548 12.076L42.3932 15.6052L45.4338 13.4177L47.3049 12.076L50.3309 9.88854Z" fill="#D5D5D5"/>
<path d="M60.6223 13.4323L62.7566 12.8927L63.6483 15.6344L60.6223 13.4323ZM65.5341 9.88854H61.7771L60.6223 6.35938L59.4674 9.88854H55.7105L58.7511 12.076L57.5963 15.6052L60.6369 13.4177L62.5081 12.076L65.5341 9.88854Z" fill="#D5D5D5"/>
<path d="M75.8254 13.4323L77.9597 12.8927L78.8514 15.6344L75.8254 13.4323ZM80.7372 9.88854H76.9803L75.8254 6.35938L74.6706 9.88854H70.9136L73.9543 12.076L72.7994 15.6052L75.84 13.4177L77.7112 12.076L80.7372 9.88854Z" fill="#D5D5D5"/>
</g>
<path d="M12.1019 29.064C11.6753 29.064 11.2779 28.992 10.9099 28.848C10.5473 28.704 10.2326 28.504 9.96595 28.248C9.69928 27.9867 9.49128 27.6827 9.34195 27.336C9.19261 26.9893 9.11795 26.6107 9.11795 26.2C9.11795 25.7893 9.19261 25.4107 9.34195 25.064C9.49128 24.7173 9.69928 24.416 9.96595 24.16C10.2326 23.8987 10.5473 23.696 10.9099 23.552C11.2726 23.408 11.6699 23.336 12.1019 23.336C12.5286 23.336 12.9206 23.408 13.2779 23.552C13.6406 23.6907 13.9553 23.8907 14.2219 24.152C14.4939 24.408 14.7019 24.7093 14.8459 25.056C14.9953 25.4027 15.0699 25.784 15.0699 26.2C15.0699 26.616 14.9953 26.9973 14.8459 27.344C14.7019 27.6907 14.4939 27.9947 14.2219 28.256C13.9553 28.512 13.6406 28.712 13.2779 28.856C12.9206 28.9947 12.5286 29.064 12.1019 29.064ZM12.1019 28.352C12.4113 28.352 12.6966 28.2987 12.9579 28.192C13.2246 28.0853 13.4539 27.936 13.6459 27.744C13.8433 27.5467 13.9953 27.3173 14.1019 27.056C14.2139 26.7947 14.2699 26.5093 14.2699 26.2C14.2699 25.8907 14.2139 25.6053 14.1019 25.344C13.9953 25.0827 13.8433 24.856 13.6459 24.664C13.4539 24.4667 13.2246 24.3147 12.9579 24.208C12.6966 24.1013 12.4113 24.048 12.1019 24.048C11.7873 24.048 11.4966 24.1013 11.2299 24.208C10.9686 24.3147 10.7393 24.4667 10.5419 24.664C10.3446 24.856 10.1899 25.0827 10.0779 25.344C9.97128 25.6053 9.91795 25.8907 9.91795 26.2C9.91795 26.5093 9.97128 26.7947 10.0779 27.056C10.1899 27.3173 10.3446 27.5467 10.5419 27.744C10.7393 27.936 10.9686 28.0853 11.2299 28.192C11.4966 28.2987 11.7873 28.352 12.1019 28.352ZM17.2927 29L15.4367 24.76H16.2367L17.8847 28.6H17.5007L19.1807 24.76H19.9327L18.0767 29H17.2927ZM22.4203 29.048C21.9669 29.048 21.5669 28.9547 21.2203 28.768C20.8789 28.5813 20.6123 28.3253 20.4203 28C20.2336 27.6747 20.1403 27.3013 20.1403 26.88C20.1403 26.4587 20.2309 26.0853 20.4123 25.76C20.5989 25.4347 20.8523 25.1813 21.1723 25C21.4976 24.8133 21.8629 24.72 22.2683 24.72C22.6789 24.72 23.0416 24.8107 23.3563 24.992C23.6709 25.1733 23.9163 25.4293 24.0923 25.76C24.2736 26.0853 24.3643 26.4667 24.3643 26.904C24.3643 26.936 24.3616 26.9733 24.3563 27.016C24.3563 27.0587 24.3536 27.0987 24.3483 27.136H20.7403V26.584H23.9483L23.6363 26.776C23.6416 26.504 23.5856 26.2613 23.4683 26.048C23.3509 25.8347 23.1883 25.6693 22.9803 25.552C22.7776 25.4293 22.5403 25.368 22.2683 25.368C22.0016 25.368 21.7643 25.4293 21.5563 25.552C21.3483 25.6693 21.1856 25.8373 21.0683 26.056C20.9509 26.2693 20.8923 26.5147 20.8923 26.792V26.92C20.8923 27.2027 20.9563 27.456 21.0843 27.68C21.2176 27.8987 21.4016 28.0693 21.6363 28.192C21.8709 28.3147 22.1403 28.376 22.4443 28.376C22.6949 28.376 22.9216 28.3333 23.1243 28.248C23.3323 28.1627 23.5136 28.0347 23.6683 27.864L24.0923 28.36C23.9003 28.584 23.6603 28.7547 23.3723 28.872C23.0896 28.9893 22.7723 29.048 22.4203 29.048ZM25.4307 29V24.76H26.1667V25.912L26.0947 25.624C26.212 25.3307 26.4094 25.1067 26.6867 24.952C26.964 24.7973 27.3054 24.72 27.7107 24.72V25.464C27.6787 25.4587 27.6467 25.456 27.6147 25.456C27.588 25.456 27.5614 25.456 27.5347 25.456C27.124 25.456 26.7987 25.5787 26.5587 25.824C26.3187 26.0693 26.1987 26.424 26.1987 26.888V29H25.4307ZM31.3084 29V23.88L31.8684 24.44H30.1884V23.4H32.6044V29H31.3084ZM35.9772 29.096C35.5185 29.096 35.1079 28.984 34.7452 28.76C34.3825 28.5307 34.0972 28.2 33.8892 27.768C33.6812 27.336 33.5772 26.8133 33.5772 26.2C33.5772 25.5867 33.6812 25.064 33.8892 24.632C34.0972 24.2 34.3825 23.872 34.7452 23.648C35.1079 23.4187 35.5185 23.304 35.9772 23.304C36.4412 23.304 36.8519 23.4187 37.2092 23.648C37.5719 23.872 37.8572 24.2 38.0652 24.632C38.2732 25.064 38.3772 25.5867 38.3772 26.2C38.3772 26.8133 38.2732 27.336 38.0652 27.768C37.8572 28.2 37.5719 28.5307 37.2092 28.76C36.8519 28.984 36.4412 29.096 35.9772 29.096ZM35.9772 28C36.1959 28 36.3852 27.9387 36.5452 27.816C36.7105 27.6933 36.8385 27.4987 36.9292 27.232C37.0252 26.9653 37.0732 26.6213 37.0732 26.2C37.0732 25.7787 37.0252 25.4347 36.9292 25.168C36.8385 24.9013 36.7105 24.7067 36.5452 24.584C36.3852 24.4613 36.1959 24.4 35.9772 24.4C35.7639 24.4 35.5745 24.4613 35.4092 24.584C35.2492 24.7067 35.1212 24.9013 35.0252 25.168C34.9345 25.4347 34.8892 25.7787 34.8892 26.2C34.8892 26.6213 34.9345 26.9653 35.0252 27.232C35.1212 27.4987 35.2492 27.6933 35.4092 27.816C35.5745 27.9387 35.7639 28 35.9772 28ZM38.9533 30.232L39.4813 28.312L39.6573 29.032C39.428 29.032 39.2387 28.9653 39.0893 28.832C38.9453 28.6987 38.8733 28.5147 38.8733 28.28C38.8733 28.0453 38.948 27.8587 39.0973 27.72C39.2467 27.5813 39.4307 27.512 39.6493 27.512C39.8733 27.512 40.0573 27.584 40.2013 27.728C40.3453 27.8667 40.4173 28.0507 40.4173 28.28C40.4173 28.3493 40.412 28.4187 40.4013 28.488C40.3907 28.552 40.3693 28.632 40.3373 28.728C40.3107 28.8187 40.2653 28.936 40.2013 29.08L39.7453 30.232H38.9533ZM43.2975 29.096C42.8388 29.096 42.4282 28.984 42.0655 28.76C41.7028 28.5307 41.4175 28.2 41.2095 27.768C41.0015 27.336 40.8975 26.8133 40.8975 26.2C40.8975 25.5867 41.0015 25.064 41.2095 24.632C41.4175 24.2 41.7028 23.872 42.0655 23.648C42.4282 23.4187 42.8388 23.304 43.2975 23.304C43.7615 23.304 44.1722 23.4187 44.5295 23.648C44.8922 23.872 45.1775 24.2 45.3855 24.632C45.5935 25.064 45.6975 25.5867 45.6975 26.2C45.6975 26.8133 45.5935 27.336 45.3855 27.768C45.1775 28.2 44.8922 28.5307 44.5295 28.76C44.1722 28.984 43.7615 29.096 43.2975 29.096ZM43.2975 28C43.5162 28 43.7055 27.9387 43.8655 27.816C44.0308 27.6933 44.1588 27.4987 44.2495 27.232C44.3455 26.9653 44.3935 26.6213 44.3935 26.2C44.3935 25.7787 44.3455 25.4347 44.2495 25.168C44.1588 24.9013 44.0308 24.7067 43.8655 24.584C43.7055 24.4613 43.5162 24.4 43.2975 24.4C43.0842 24.4 42.8948 24.4613 42.7295 24.584C42.5695 24.7067 42.4415 24.9013 42.3455 25.168C42.2548 25.4347 42.2095 25.7787 42.2095 26.2C42.2095 26.6213 42.2548 26.9653 42.3455 27.232C42.4415 27.4987 42.5695 27.6933 42.7295 27.816C42.8948 27.9387 43.0842 28 43.2975 28ZM48.7272 29.096C48.2685 29.096 47.8579 28.984 47.4952 28.76C47.1325 28.5307 46.8472 28.2 46.6392 27.768C46.4312 27.336 46.3272 26.8133 46.3272 26.2C46.3272 25.5867 46.4312 25.064 46.6392 24.632C46.8472 24.2 47.1325 23.872 47.4952 23.648C47.8579 23.4187 48.2685 23.304 48.7272 23.304C49.1912 23.304 49.6019 23.4187 49.9592 23.648C50.3219 23.872 50.6072 24.2 50.8152 24.632C51.0232 25.064 51.1272 25.5867 51.1272 26.2C51.1272 26.8133 51.0232 27.336 50.8152 27.768C50.6072 28.2 50.3219 28.5307 49.9592 28.76C49.6019 28.984 49.1912 29.096 48.7272 29.096ZM48.7272 28C48.9459 28 49.1352 27.9387 49.2952 27.816C49.4605 27.6933 49.5885 27.4987 49.6792 27.232C49.7752 26.9653 49.8232 26.6213 49.8232 26.2C49.8232 25.7787 49.7752 25.4347 49.6792 25.168C49.5885 24.9013 49.4605 24.7067 49.2952 24.584C49.1352 24.4613 48.9459 24.4 48.7272 24.4C48.5139 24.4 48.3245 24.4613 48.1592 24.584C47.9992 24.7067 47.8712 24.9013 47.7752 25.168C47.6845 25.4347 47.6392 25.7787 47.6392 26.2C47.6392 26.6213 47.6845 26.9653 47.7752 27.232C47.8712 27.4987 47.9992 27.6933 48.1592 27.816C48.3245 27.9387 48.5139 28 48.7272 28ZM54.1569 29.096C53.6982 29.096 53.2876 28.984 52.9249 28.76C52.5622 28.5307 52.2769 28.2 52.0689 27.768C51.8609 27.336 51.7569 26.8133 51.7569 26.2C51.7569 25.5867 51.8609 25.064 52.0689 24.632C52.2769 24.2 52.5622 23.872 52.9249 23.648C53.2876 23.4187 53.6982 23.304 54.1569 23.304C54.6209 23.304 55.0316 23.4187 55.3889 23.648C55.7516 23.872 56.0369 24.2 56.2449 24.632C56.4529 25.064 56.5569 25.5867 56.5569 26.2C56.5569 26.8133 56.4529 27.336 56.2449 27.768C56.0369 28.2 55.7516 28.5307 55.3889 28.76C55.0316 28.984 54.6209 29.096 54.1569 29.096ZM54.1569 28C54.3756 28 54.5649 27.9387 54.7249 27.816C54.8902 27.6933 55.0182 27.4987 55.1089 27.232C55.2049 26.9653 55.2529 26.6213 55.2529 26.2C55.2529 25.7787 55.2049 25.4347 55.1089 25.168C55.0182 24.9013 54.8902 24.7067 54.7249 24.584C54.5649 24.4613 54.3756 24.4 54.1569 24.4C53.9436 24.4 53.7542 24.4613 53.5889 24.584C53.4289 24.7067 53.3009 24.9013 53.2049 25.168C53.1142 25.4347 53.0689 25.7787 53.0689 26.2C53.0689 26.6213 53.1142 26.9653 53.2049 27.232C53.3009 27.4987 53.4289 27.6933 53.5889 27.816C53.7542 27.9387 53.9436 28 54.1569 28ZM59.7162 29V24.696H60.9082V25.912L60.7402 25.56C60.8682 25.256 61.0735 25.0267 61.3562 24.872C61.6389 24.712 61.9829 24.632 62.3882 24.632V25.784C62.3349 25.7787 62.2869 25.776 62.2442 25.776C62.2015 25.7707 62.1562 25.768 62.1082 25.768C61.7669 25.768 61.4895 25.8667 61.2762 26.064C61.0682 26.256 60.9642 26.5573 60.9642 26.968V29H59.7162ZM65.235 29.064C64.7443 29.064 64.3123 28.968 63.939 28.776C63.571 28.584 63.2857 28.3227 63.083 27.992C62.8803 27.656 62.779 27.2747 62.779 26.848C62.779 26.416 62.8777 26.0347 63.075 25.704C63.2777 25.368 63.5523 25.1067 63.899 24.92C64.2457 24.728 64.6377 24.632 65.075 24.632C65.4963 24.632 65.875 24.7227 66.211 24.904C66.5523 25.08 66.8217 25.336 67.019 25.672C67.2163 26.0027 67.315 26.4 67.315 26.864C67.315 26.912 67.3123 26.968 67.307 27.032C67.3017 27.0907 67.2963 27.1467 67.291 27.2H63.795V26.472H66.635L66.155 26.688C66.155 26.464 66.1097 26.2693 66.019 26.104C65.9283 25.9387 65.803 25.8107 65.643 25.72C65.483 25.624 65.2963 25.576 65.083 25.576C64.8697 25.576 64.6803 25.624 64.515 25.72C64.355 25.8107 64.2297 25.9413 64.139 26.112C64.0483 26.2773 64.003 26.4747 64.003 26.704V26.896C64.003 27.1307 64.0537 27.3387 64.155 27.52C64.2617 27.696 64.4083 27.832 64.595 27.928C64.787 28.0187 65.011 28.064 65.267 28.064C65.4963 28.064 65.6963 28.0293 65.867 27.96C66.043 27.8907 66.203 27.7867 66.347 27.648L67.011 28.368C66.8137 28.592 66.5657 28.7653 66.267 28.888C65.9683 29.0053 65.6243 29.064 65.235 29.064ZM69.2358 29L67.4278 24.696H68.7158L70.2198 28.4H69.5798L71.1398 24.696H72.3398L70.5238 29H69.2358ZM72.849 29V24.696H74.097V29H72.849ZM73.473 24.096C73.2437 24.096 73.057 24.0293 72.913 23.896C72.769 23.7627 72.697 23.5973 72.697 23.4C72.697 23.2027 72.769 23.0373 72.913 22.904C73.057 22.7707 73.2437 22.704 73.473 22.704C73.7023 22.704 73.889 22.768 74.033 22.896C74.177 23.0187 74.249 23.1787 74.249 23.376C74.249 23.584 74.177 23.7573 74.033 23.896C73.8943 24.0293 73.7077 24.096 73.473 24.096ZM77.3913 29.064C76.9006 29.064 76.4686 28.968 76.0953 28.776C75.7273 28.584 75.4419 28.3227 75.2393 27.992C75.0366 27.656 74.9353 27.2747 74.9353 26.848C74.9353 26.416 75.0339 26.0347 75.2313 25.704C75.4339 25.368 75.7086 25.1067 76.0553 24.92C76.4019 24.728 76.7939 24.632 77.2313 24.632C77.6526 24.632 78.0313 24.7227 78.3673 24.904C78.7086 25.08 78.9779 25.336 79.1753 25.672C79.3726 26.0027 79.4713 26.4 79.4713 26.864C79.4713 26.912 79.4686 26.968 79.4633 27.032C79.4579 27.0907 79.4526 27.1467 79.4473 27.2H75.9513V26.472H78.7913L78.3113 26.688C78.3113 26.464 78.2659 26.2693 78.1753 26.104C78.0846 25.9387 77.9593 25.8107 77.7993 25.72C77.6393 25.624 77.4526 25.576 77.2393 25.576C77.0259 25.576 76.8366 25.624 76.6713 25.72C76.5113 25.8107 76.3859 25.9413 76.2953 26.112C76.2046 26.2773 76.1593 26.4747 76.1593 26.704V26.896C76.1593 27.1307 76.2099 27.3387 76.3113 27.52C76.4179 27.696 76.5646 27.832 76.7513 27.928C76.9433 28.0187 77.1673 28.064 77.4233 28.064C77.6526 28.064 77.8526 28.0293 78.0233 27.96C78.1993 27.8907 78.3593 27.7867 78.5033 27.648L79.1673 28.368C78.9699 28.592 78.7219 28.7653 78.4233 28.888C78.1246 29.0053 77.7806 29.064 77.3913 29.064ZM81.208 29L79.656 24.696H80.832L82.12 28.4H81.56L82.904 24.696H83.96L85.264 28.4H84.704L86.032 24.696H87.136L85.576 29H84.368L83.224 25.824H83.592L82.408 29H81.208ZM89.1017 29.064C88.7337 29.064 88.379 29.0213 88.0377 28.936C87.7017 28.8453 87.435 28.7333 87.2377 28.6L87.6537 27.704C87.851 27.8267 88.083 27.928 88.3497 28.008C88.6217 28.0827 88.8884 28.12 89.1497 28.12C89.4377 28.12 89.6404 28.0853 89.7577 28.016C89.8804 27.9467 89.9417 27.8507 89.9417 27.728C89.9417 27.6267 89.8937 27.552 89.7977 27.504C89.707 27.4507 89.5844 27.4107 89.4297 27.384C89.275 27.3573 89.1044 27.3307 88.9177 27.304C88.7364 27.2773 88.5524 27.2427 88.3657 27.2C88.179 27.152 88.0084 27.0827 87.8537 26.992C87.699 26.9013 87.5737 26.7787 87.4777 26.624C87.387 26.4693 87.3417 26.2693 87.3417 26.024C87.3417 25.752 87.419 25.512 87.5737 25.304C87.7337 25.096 87.963 24.9333 88.2617 24.816C88.5604 24.6933 88.9177 24.632 89.3337 24.632C89.627 24.632 89.9257 24.664 90.2297 24.728C90.5337 24.792 90.787 24.8853 90.9897 25.008L90.5737 25.896C90.3657 25.7733 90.155 25.6907 89.9417 25.648C89.7337 25.6 89.531 25.576 89.3337 25.576C89.0564 25.576 88.8537 25.6133 88.7257 25.688C88.5977 25.7627 88.5337 25.8587 88.5337 25.976C88.5337 26.0827 88.579 26.1627 88.6697 26.216C88.7657 26.2693 88.891 26.312 89.0457 26.344C89.2004 26.376 89.3684 26.4053 89.5497 26.432C89.7364 26.4533 89.923 26.488 90.1097 26.536C90.2964 26.584 90.4644 26.6533 90.6137 26.744C90.7684 26.8293 90.8937 26.9493 90.9897 27.104C91.0857 27.2533 91.1337 27.4507 91.1337 27.696C91.1337 27.9627 91.0537 28.2 90.8937 28.408C90.7337 28.6107 90.5017 28.7707 90.1977 28.888C89.899 29.0053 89.5337 29.064 89.1017 29.064ZM96.0201 29.048C95.5935 29.048 95.2148 28.9547 94.8841 28.768C94.5535 28.5813 94.2921 28.3253 94.1001 28C93.9081 27.6693 93.8121 27.296 93.8121 26.88C93.8121 26.4587 93.9081 26.0853 94.1001 25.76C94.2921 25.4347 94.5535 25.1813 94.8841 25C95.2148 24.8133 95.5935 24.72 96.0201 24.72C96.4415 24.72 96.8175 24.8133 97.1481 25C97.4841 25.1813 97.7455 25.4347 97.9321 25.76C98.1241 26.08 98.2201 26.4533 98.2201 26.88C98.2201 27.3013 98.1241 27.6747 97.9321 28C97.7455 28.3253 97.4841 28.5813 97.1481 28.768C96.8175 28.9547 96.4415 29.048 96.0201 29.048ZM96.0201 28.376C96.2921 28.376 96.5348 28.3147 96.7481 28.192C96.9668 28.0693 97.1375 27.896 97.2601 27.672C97.3828 27.4427 97.4441 27.1787 97.4441 26.88C97.4441 26.576 97.3828 26.3147 97.2601 26.096C97.1375 25.872 96.9668 25.6987 96.7481 25.576C96.5348 25.4533 96.2921 25.392 96.0201 25.392C95.7481 25.392 95.5055 25.4533 95.2921 25.576C95.0788 25.6987 94.9081 25.872 94.7801 26.096C94.6521 26.3147 94.5881 26.576 94.5881 26.88C94.5881 27.1787 94.6521 27.4427 94.7801 27.672C94.9081 27.896 95.0788 28.0693 95.2921 28.192C95.5055 28.3147 95.7481 28.376 96.0201 28.376ZM101.546 24.72C101.893 24.72 102.197 24.7867 102.458 24.92C102.725 25.0533 102.933 25.256 103.082 25.528C103.232 25.8 103.306 26.144 103.306 26.56V29H102.538V26.648C102.538 26.2373 102.437 25.928 102.234 25.72C102.037 25.512 101.757 25.408 101.394 25.408C101.122 25.408 100.885 25.4613 100.682 25.568C100.48 25.6747 100.322 25.832 100.21 26.04C100.104 26.248 100.05 26.5067 100.05 26.816V29H99.2823V24.76H100.018V25.904L99.8983 25.6C100.037 25.3227 100.25 25.1067 100.538 24.952C100.826 24.7973 101.162 24.72 101.546 24.72Z" fill="black"/>
<path d="M117.562 24.251L122.013 24.251L122.013 25.1717L120.261 25.1717L120.261 30.3622L119.3 30.3622L119.3 25.1717L117.554 25.1717L117.562 24.251ZM121.823 25.9377L122.644 25.9377L122.644 26.7933L122.659 26.7933C122.688 26.671 122.74 26.557 122.813 26.4429C122.886 26.3288 122.974 26.2229 123.084 26.1332C123.187 26.0355 123.304 25.9621 123.436 25.9051C123.561 25.848 123.693 25.8155 123.825 25.8155C123.928 25.8155 124.001 25.8236 124.038 25.8236C124.074 25.8318 124.118 25.8399 124.155 25.8399L124.155 26.777C124.096 26.7607 124.03 26.7525 123.964 26.7444C123.898 26.7362 123.84 26.7281 123.774 26.7281C123.627 26.7281 123.488 26.7607 123.356 26.8258C123.224 26.891 123.114 26.9888 123.011 27.111C122.916 27.2414 122.835 27.3962 122.776 27.5836C122.718 27.7711 122.688 27.9911 122.688 28.2355L122.688 30.3378L121.808 30.3378L121.823 25.9377ZM128.189 30.3622L127.323 30.3622L127.323 29.743L127.309 29.743C127.199 29.9711 127.037 30.1422 126.825 30.2807C126.612 30.4193 126.392 30.4845 126.172 30.4845C125.651 30.4845 125.27 30.3459 125.035 30.0526C124.8 29.7674 124.683 29.3274 124.683 28.7489L124.683 25.9377L125.563 25.9377L125.563 28.6511C125.563 29.0422 125.629 29.3192 125.769 29.4741C125.901 29.637 126.091 29.7185 126.333 29.7185C126.517 29.7185 126.671 29.6859 126.795 29.6207C126.92 29.5555 127.023 29.4741 127.096 29.3681C127.177 29.2622 127.228 29.1318 127.265 28.9852C127.301 28.8385 127.316 28.6755 127.316 28.5044L127.316 25.9377L128.196 25.9377L128.196 30.3622L128.189 30.3622ZM129.685 28.9444C129.714 29.2296 129.81 29.4252 129.978 29.5474C130.147 29.6615 130.352 29.7185 130.587 29.7185C130.668 29.7185 130.763 29.7104 130.866 29.6941C130.968 29.6778 131.071 29.6533 131.159 29.6126C131.254 29.5718 131.328 29.5148 131.386 29.4333C131.445 29.3518 131.474 29.2541 131.467 29.1318C131.46 29.0096 131.423 28.9037 131.342 28.8222C131.262 28.7407 131.166 28.6837 131.049 28.6266C130.932 28.5777 130.792 28.537 130.638 28.5044C130.484 28.4718 130.33 28.4311 130.169 28.3903C130.008 28.3496 129.846 28.3007 129.692 28.2437C129.538 28.1866 129.406 28.1133 129.282 28.0074C129.164 27.9096 129.062 27.7874 128.996 27.6325C128.922 27.4777 128.886 27.2985 128.886 27.0703C128.886 26.8258 128.937 26.6303 129.047 26.4673C129.15 26.3044 129.289 26.174 129.45 26.0762C129.612 25.9784 129.795 25.9051 129.993 25.8643C130.191 25.8236 130.382 25.8073 130.558 25.8073C130.763 25.8073 130.961 25.8318 131.144 25.8806C131.328 25.9295 131.504 26.0029 131.651 26.1169C131.805 26.2229 131.929 26.3695 132.025 26.5407C132.127 26.7118 132.186 26.9236 132.215 27.1681L131.298 27.1681C131.254 26.9318 131.159 26.777 131.012 26.6955C130.858 26.614 130.69 26.5733 130.492 26.5733C130.433 26.5733 130.352 26.5814 130.272 26.5895C130.184 26.6058 130.11 26.6221 130.03 26.6547C129.956 26.6873 129.89 26.7362 129.839 26.7933C129.788 26.8503 129.758 26.9318 129.758 27.0296C129.758 27.1518 129.795 27.2414 129.868 27.3147C129.942 27.3881 130.037 27.4451 130.162 27.5022C130.279 27.5511 130.418 27.5918 130.572 27.6244C130.726 27.657 130.888 27.6977 131.049 27.7385C131.21 27.7792 131.364 27.8281 131.518 27.8851C131.673 27.9422 131.812 28.0155 131.929 28.1214C132.047 28.2192 132.149 28.3414 132.223 28.4881C132.296 28.6348 132.333 28.8222 132.333 29.034C132.333 29.2948 132.281 29.5148 132.171 29.7022C132.061 29.8815 131.922 30.0363 131.753 30.1504C131.584 30.2644 131.386 30.3459 131.181 30.403C130.968 30.4519 130.763 30.4845 130.558 30.4845C130.308 30.4845 130.074 30.4519 129.861 30.3867C129.648 30.3215 129.458 30.2237 129.304 30.1015C129.15 29.9711 129.025 29.8163 128.937 29.6207C128.849 29.4333 128.798 29.2052 128.79 28.9363L129.678 28.9363L129.678 28.9444L129.685 28.9444ZM132.582 25.9377L133.249 25.9377L133.249 24.6014L134.129 24.6014L134.129 25.9295L134.922 25.9295L134.922 26.6547L134.129 26.6547L134.129 29.0178C134.129 29.1237 134.137 29.2052 134.144 29.2866C134.151 29.36 134.173 29.4252 134.195 29.4741C134.225 29.5229 134.269 29.5637 134.32 29.5881C134.379 29.6126 134.452 29.6289 134.555 29.6289C134.614 29.6289 134.68 29.6289 134.738 29.6207C134.797 29.6126 134.863 29.6044 134.922 29.5881L134.922 30.3459C134.826 30.3622 134.731 30.3704 134.636 30.3785C134.54 30.3948 134.452 30.3948 134.349 30.3948C134.115 30.3948 133.931 30.3704 133.792 30.3215C133.653 30.2726 133.543 30.1993 133.462 30.1096C133.381 30.0119 133.33 29.8978 133.301 29.7593C133.271 29.6207 133.257 29.4496 133.249 29.2704L133.249 26.6629L132.582 26.6629L132.582 25.9214L132.582 25.9377ZM135.538 25.9377L136.366 25.9377L136.366 26.5407L136.381 26.5407C136.506 26.2799 136.674 26.1006 136.894 25.9866C137.114 25.8725 137.349 25.8155 137.613 25.8155C137.929 25.8155 138.2 25.8725 138.435 26.0029C138.669 26.1251 138.86 26.2881 139.014 26.5081C139.168 26.7199 139.285 26.9725 139.359 27.2577C139.432 27.5429 139.476 27.8525 139.476 28.1703C139.476 28.4718 139.439 28.757 139.373 29.0341C139.3 29.3111 139.197 29.5637 139.058 29.7755C138.919 29.9874 138.743 30.1585 138.523 30.2889C138.303 30.4193 138.053 30.4845 137.76 30.4845C137.635 30.4845 137.503 30.4682 137.378 30.4437C137.254 30.4193 137.129 30.3785 137.012 30.3215C136.894 30.2645 136.784 30.1911 136.689 30.1015C136.586 30.0119 136.506 29.9059 136.44 29.7918L136.425 29.7918L136.425 32L135.545 32L135.545 25.9377L135.538 25.9377ZM138.611 28.154C138.611 27.9585 138.589 27.7629 138.537 27.5755C138.493 27.3881 138.42 27.2251 138.325 27.0784C138.229 26.9318 138.112 26.8177 137.98 26.7281C137.841 26.6384 137.679 26.5977 137.503 26.5977C137.136 26.5977 136.858 26.7362 136.667 27.0214C136.484 27.3066 136.388 27.6896 136.388 28.1622C136.388 28.3903 136.41 28.594 136.462 28.7815C136.513 28.9689 136.579 29.1318 136.682 29.2704C136.777 29.4089 136.894 29.5148 137.034 29.5963C137.173 29.6778 137.327 29.7185 137.51 29.7185C137.716 29.7185 137.877 29.6696 138.017 29.58C138.156 29.4904 138.266 29.3681 138.361 29.2296C138.449 29.0829 138.515 28.92 138.552 28.7326C138.589 28.537 138.611 28.3496 138.611 28.154ZM140.158 24.251L141.038 24.251L141.038 25.1717L140.158 25.1717L140.158 24.251ZM140.158 25.9377L141.038 25.9377L141.038 30.3622L140.158 30.3622L140.158 25.9377ZM141.823 24.251L142.703 24.251L142.703 30.3622L141.823 30.3622L141.823 24.251ZM145.387 30.4845C145.072 30.4845 144.786 30.4274 144.537 30.3052C144.287 30.183 144.082 30.0281 143.906 29.8244C143.737 29.6207 143.605 29.3681 143.517 29.0829C143.429 28.7977 143.378 28.48 143.378 28.1459C143.378 27.8118 143.422 27.5022 143.517 27.217C143.605 26.9318 143.737 26.6873 143.906 26.4755C144.075 26.2718 144.287 26.1088 144.537 25.9947C144.786 25.8806 145.072 25.8155 145.387 25.8155C145.703 25.8155 145.989 25.8725 146.238 25.9947C146.487 26.1088 146.693 26.2718 146.869 26.4755C147.038 26.6792 147.17 26.9318 147.258 27.217C147.346 27.5022 147.397 27.8118 147.397 28.1459C147.397 28.4881 147.353 28.7977 147.258 29.0829C147.162 29.3681 147.038 29.6126 146.869 29.8244C146.7 30.0281 146.487 30.1911 146.238 30.3052C145.989 30.4193 145.71 30.4845 145.387 30.4845ZM145.387 29.7104C145.578 29.7104 145.754 29.6615 145.893 29.5718C146.04 29.4822 146.15 29.36 146.245 29.2133C146.341 29.0666 146.407 28.8955 146.451 28.7163C146.495 28.5289 146.517 28.3414 146.517 28.1459C146.517 27.9585 146.495 27.7711 146.451 27.5836C146.407 27.3962 146.341 27.2333 146.245 27.0866C146.15 26.9399 146.033 26.8259 145.893 26.7362C145.747 26.6466 145.578 26.5977 145.387 26.5977C145.197 26.5977 145.021 26.6466 144.881 26.7362C144.735 26.8259 144.625 26.9481 144.529 27.0866C144.434 27.2333 144.368 27.3962 144.324 27.5836C144.28 27.7711 144.258 27.9585 144.258 28.1459C144.258 28.3414 144.28 28.5289 144.324 28.7163C144.368 28.9037 144.434 29.0666 144.529 29.2133C144.625 29.36 144.742 29.4822 144.881 29.5718C145.028 29.6696 145.197 29.7104 145.387 29.7104ZM147.661 25.9377L148.328 25.9377L148.328 24.6014L149.208 24.6014L149.208 25.9295L150.001 25.9295L150.001 26.6547L149.208 26.6547L149.208 29.0178C149.208 29.1237 149.216 29.2052 149.223 29.2866C149.23 29.36 149.252 29.4252 149.274 29.4741C149.304 29.523 149.348 29.5637 149.399 29.5881C149.458 29.6126 149.531 29.6289 149.634 29.6289C149.693 29.6289 149.759 29.6289 149.817 29.6207C149.876 29.6126 149.942 29.6044 150.001 29.5881L150.001 30.3459C149.905 30.3622 149.81 30.3704 149.715 30.3785C149.619 30.3948 149.531 30.3948 149.428 30.3948C149.194 30.3948 149.01 30.3704 148.871 30.3215C148.732 30.2726 148.622 30.1993 148.541 30.1096C148.46 30.0119 148.409 29.8978 148.38 29.7593C148.35 29.6207 148.336 29.4496 148.328 29.2704L148.328 26.6629L147.661 26.6629L147.661 25.9214L147.661 25.9377Z" fill="black"/>
<path d="M116.539 24.2534L112.512 24.2534L111.273 20L110.026 24.2534L106 24.2453L109.256 26.8772L108.009 31.1306L111.265 28.4987L114.522 31.1306L113.282 26.8772L116.539 24.2534Z" fill="#00B67A"/>
<path d="M113.557 27.836L113.279 26.8745L111.269 28.496L113.557 27.836Z" fill="#005128"/>
<defs>
<clipPath id="clip0_1_1087">
<rect width="74" height="14" fill="white" transform="translate(7.99957 4)"/>
</clipPath>
</defs>
</svg>
