<svg width="91" height="36" viewBox="0 0 91 36" fill="none" xmlns="http://www.w3.org/2000/svg">
<rect x="-0.000427246" width="91" height="36" rx="4" fill="#D5D5D5"/>
<g clip-path="url(#clip0_1_1084)">
<path fill-rule="evenodd" clip-rule="evenodd" d="M25.9864 5.73828V5.79375C25.9536 6.01303 25.8554 6.20172 25.6918 6.35981C25.4312 6.61193 25.0913 6.80508 24.7668 6.95106C21.4477 8.44443 18.2216 9.89467 15.0884 11.3018C14.9208 11.3772 14.7416 11.444 14.5507 11.5023C13.7277 11.7532 12.8765 11.8891 11.997 11.9099C11.6586 11.918 11.3443 11.8854 11.0542 11.812C10.9064 11.7748 10.7566 11.71 10.6332 11.6205C10.4199 11.4662 10.3049 11.2151 10.3988 10.9645C10.4398 10.8549 10.5006 10.7536 10.5813 10.6605C10.5848 10.6565 10.5867 10.6515 10.5868 10.6464C10.5868 10.6412 10.585 10.6361 10.5817 10.6321L9.06607 8.81853C9.06471 8.81693 9.06375 8.81507 9.06326 8.81307C9.06277 8.81107 9.06276 8.80898 9.06324 8.80698C9.06372 8.80498 9.06468 8.80311 9.06603 8.80151C9.06738 8.79991 9.06909 8.79867 9.07104 8.79782L10.7397 8.04814C10.7495 8.04385 10.7605 8.04339 10.7705 8.04687L13.2798 8.96707C13.2846 8.96876 13.2897 8.96956 13.2948 8.96933C13.2999 8.96911 13.305 8.96791 13.3095 8.96578L15.719 7.86264C15.7209 7.86178 15.7226 7.86049 15.7238 7.85887C15.7251 7.85724 15.726 7.85534 15.7263 7.85332C15.7267 7.85129 15.7265 7.8492 15.7259 7.84721C15.7253 7.84524 15.7242 7.84342 15.7226 7.84192L11.9177 4.1239C11.9167 4.12292 11.916 4.12168 11.9157 4.12034C11.9154 4.11899 11.9155 4.1176 11.916 4.11635C11.9165 4.11509 11.9173 4.11402 11.9185 4.11326C11.9196 4.11251 11.9209 4.11211 11.9223 4.11211C12.8202 4.07514 13.7146 4.03784 14.6052 4.00023C14.6458 3.99853 14.6834 4.00608 14.718 4.02286C16.2934 4.78634 17.8181 5.52516 19.2918 6.23933C19.2966 6.24162 19.3018 6.24284 19.3071 6.2429C19.3125 6.24296 19.3177 6.24184 19.3226 6.23965C20.2276 5.83146 21.1295 5.42635 22.0284 5.02432C23.0856 4.55132 24.3468 4.34383 25.406 4.94304C25.5159 5.00488 25.615 5.07553 25.7037 5.155C25.8803 5.31309 25.9745 5.50752 25.9864 5.73828ZM37.3613 20.4102V20.9044C37.2771 24.0338 35.8867 26.9733 33.5082 29.052C31.5519 30.7616 29.2363 31.7443 26.5612 32H24.5031C22.5873 31.8258 20.8516 31.269 19.2961 30.3298C17.9326 29.5064 16.7981 28.4855 15.8924 27.2671C14.4972 25.3892 13.762 23.2723 13.6868 20.9164V20.3964C13.7932 17.6184 14.7825 15.2012 16.6549 13.1449C16.8368 12.9451 17.0438 12.753 17.2513 12.5604L17.2513 12.5604C17.3434 12.4749 17.4355 12.3894 17.5256 12.3031C17.7393 12.098 17.9825 11.9158 18.2225 11.7361L18.2226 11.736L18.2226 11.736C18.2946 11.682 18.3664 11.6283 18.437 11.5742C18.6628 11.4006 18.9062 11.2523 19.1526 11.1023L19.1527 11.1022C19.216 11.0636 19.2794 11.025 19.3428 10.9858C19.5712 10.8444 19.7986 10.7197 20.0248 10.6116C20.0887 10.581 20.1519 10.5504 20.2148 10.52C20.4665 10.398 20.7127 10.2788 20.9769 10.1778C21.3033 10.053 21.613 9.94356 21.9058 9.84933C22.0489 9.80342 22.3069 9.73333 22.6799 9.63911C22.9438 9.57244 23.1942 9.52102 23.4313 9.48489C23.5026 9.47404 23.5737 9.46276 23.6444 9.45151C23.9071 9.40978 24.1659 9.36862 24.4226 9.35289C24.5152 9.34707 24.6075 9.34053 24.6998 9.334C25.0853 9.30676 25.4689 9.2796 25.8588 9.304C25.9607 9.3104 26.0619 9.31551 26.1629 9.32067C26.3982 9.33258 26.6329 9.34444 26.8752 9.37244C28.422 9.55022 29.8678 9.996 31.2124 10.7098C31.3903 10.8043 31.6743 10.9701 32.0646 11.2071C32.3034 11.3525 32.524 11.5171 32.7431 11.6806L32.7431 11.6806C32.8027 11.7251 32.8622 11.7694 32.9219 11.8133C33.1185 11.9576 33.3101 12.1154 33.4966 12.2867C33.5459 12.3318 33.5952 12.3766 33.6445 12.4213C33.8447 12.6031 34.0444 12.7844 34.2355 12.9867C36.2103 15.0752 37.2522 17.5498 37.3613 20.4102ZM22.5278 13.4871C22.4442 13.6667 22.3625 13.8456 22.2827 14.024C22.2822 14.0253 22.2819 14.0268 22.2821 14.0281C22.2822 14.0296 22.2826 14.0309 22.2833 14.0321C22.2837 14.0327 22.284 14.0332 22.2845 14.0336C22.2847 14.0339 22.285 14.0342 22.2853 14.0344C22.2855 14.0347 22.2859 14.0348 22.2862 14.0351C22.2868 14.0355 22.2875 14.0358 22.2882 14.036C22.2888 14.0362 22.2894 14.0364 22.2901 14.0364C23.1147 14.1481 23.9414 14.2184 24.7704 14.2471C24.7796 14.2474 24.7842 14.243 24.7842 14.2338V10.9027C24.7842 10.9021 24.7842 10.9016 24.7841 10.9011C24.784 10.9005 24.7839 10.8998 24.7837 10.8992C24.7834 10.8984 24.783 10.8975 24.7826 10.8967C24.7815 10.8949 24.78 10.8933 24.7781 10.8923C24.7763 10.8912 24.7742 10.8905 24.772 10.8904C24.7698 10.8903 24.7677 10.8907 24.7657 10.8916C24.2358 11.1342 23.7896 11.5547 23.4354 12.008C23.0748 12.4693 22.7722 12.9624 22.5278 13.4871ZM28.6031 13.6662C28.3294 13.0481 27.9892 12.483 27.5826 11.9707C27.2317 11.5289 26.8095 11.144 26.2893 10.8938C26.2866 10.8925 26.2837 10.8919 26.2807 10.892C26.2777 10.8921 26.2747 10.893 26.2722 10.8945C26.2697 10.896 26.2676 10.8981 26.2661 10.9007C26.2646 10.9032 26.2639 10.906 26.2639 10.9089V14.2218C26.2639 14.2387 26.2727 14.2468 26.2902 14.2462C27.1044 14.2172 27.9197 14.1474 28.7363 14.0369C28.7603 14.0336 28.7673 14.0213 28.7571 14C28.7062 13.8945 28.6549 13.7832 28.6031 13.6662ZM20.8063 13.7449C21.1342 12.8761 21.5748 12.0619 22.1278 11.3022C22.1469 11.2759 22.1407 11.268 22.1093 11.2787C21.5452 11.473 20.9955 11.7126 20.4604 11.9973C20.2633 12.1022 20.0769 12.2185 19.8933 12.3331L19.8932 12.3332L19.8931 12.3332C19.8278 12.374 19.7629 12.4145 19.6979 12.4542C19.4564 12.602 19.2322 12.7772 19.0093 12.9515C18.9198 13.0215 18.8305 13.0913 18.7403 13.1591C18.7385 13.1604 18.7371 13.1622 18.7363 13.1642C18.7355 13.1663 18.7353 13.1685 18.7356 13.1706C18.736 13.1728 18.737 13.1748 18.7384 13.1764C18.7399 13.1781 18.7418 13.1793 18.744 13.18C18.8161 13.2036 18.8886 13.2276 18.9615 13.2516H18.9615L18.9616 13.2517H18.9616C19.3321 13.3742 19.7113 13.4995 20.0896 13.592C20.314 13.6471 20.5405 13.7041 20.7693 13.7631C20.7768 13.765 20.7847 13.7642 20.7916 13.7608C20.7984 13.7575 20.8037 13.7518 20.8063 13.7449ZM29.2532 11.3951C29.1497 11.3566 29.0433 11.3201 28.9342 11.2858C28.9095 11.2781 28.9045 11.2844 28.9189 11.3049C29.4641 12.0684 29.9108 12.8764 30.2395 13.7449C30.2417 13.7508 30.246 13.7558 30.2517 13.7588C30.2574 13.7619 30.2641 13.7628 30.2705 13.7613C30.9638 13.6111 31.6416 13.4166 32.3041 13.1778C32.3057 13.1772 32.3071 13.1761 32.3082 13.1748C32.3093 13.1735 32.31 13.172 32.3103 13.1703C32.3105 13.1687 32.3104 13.167 32.3098 13.1654C32.3095 13.1646 32.3091 13.1639 32.3086 13.1632C32.3084 13.1628 32.3081 13.1625 32.3078 13.1622C32.3075 13.1619 32.3072 13.1616 32.3069 13.1613C31.3732 12.3939 30.3553 11.8052 29.2532 11.3951ZM33.2465 14.3387C32.445 14.6637 31.6096 14.9246 30.7403 15.1213C30.7337 15.1229 30.728 15.1269 30.7245 15.1324C30.721 15.1379 30.7198 15.1444 30.7213 15.1507C30.7522 15.2812 30.7845 15.4128 30.817 15.5449C30.9067 15.9097 30.9974 16.2789 31.0612 16.6413C31.0967 16.8431 31.1325 17.0452 31.1689 17.2476C31.2241 17.5533 31.2593 17.8678 31.2941 18.1791C31.3011 18.241 31.308 18.3028 31.315 18.3644C31.3631 18.7811 31.3844 19.1965 31.4057 19.6124V19.6125V19.6126V19.6126V19.6127V19.6128C31.4112 19.7208 31.4168 19.8288 31.4228 19.9369C31.423 19.9417 31.4252 19.9462 31.4289 19.9495C31.4326 19.9528 31.4375 19.9547 31.4427 19.9547H35.8234C35.8256 19.9547 35.8279 19.9542 35.83 19.9534C35.8321 19.9525 35.834 19.9512 35.8355 19.9496C35.8371 19.948 35.8382 19.9461 35.8389 19.9441C35.8396 19.942 35.8398 19.9399 35.8396 19.9378C35.6617 17.8086 34.865 15.9253 33.4495 14.288C33.439 14.2756 33.4259 14.272 33.4101 14.2773C33.3562 14.2957 33.3016 14.3161 33.2465 14.3387ZM15.9868 16.8151C15.5499 17.8077 15.2891 18.8507 15.2044 19.944C15.2038 19.9511 15.2072 19.9547 15.2146 19.9547H19.5966C19.6053 19.9547 19.6137 19.9514 19.6199 19.9456C19.6261 19.9398 19.6297 19.9319 19.6299 19.9236C19.6673 18.6539 19.8099 17.4421 20.0581 16.288C20.1407 15.9037 20.231 15.5252 20.3291 15.1524C20.33 15.1491 20.3301 15.1456 20.3296 15.1421C20.3291 15.1386 20.3278 15.1353 20.3259 15.1323C20.324 15.1293 20.3215 15.1268 20.3186 15.1247C20.3156 15.1227 20.3123 15.1212 20.3087 15.1204C19.3818 14.9119 18.4944 14.6296 17.6467 14.2738C17.6323 14.2679 17.6199 14.2707 17.6097 14.2822C16.9322 15.0517 16.3912 15.896 15.9868 16.8151ZM21.1087 19.9347C21.1083 19.948 21.1153 19.9547 21.1295 19.9547H24.75C24.7591 19.9547 24.7678 19.9512 24.7742 19.945C24.7806 19.9388 24.7842 19.9305 24.7842 19.9218V15.6796C24.7842 15.6767 24.783 15.6739 24.7808 15.6719C24.7787 15.6698 24.7758 15.6686 24.7727 15.6684C23.789 15.6436 22.8039 15.5572 21.8175 15.4093C21.8135 15.4087 21.8094 15.4095 21.806 15.4116C21.8026 15.4136 21.8001 15.4168 21.799 15.4204C21.3844 16.8779 21.1543 18.3827 21.1087 19.9347ZM29.4299 16.1191C29.3756 15.9008 29.318 15.6705 29.2569 15.4284C29.2532 15.4133 29.2435 15.407 29.2278 15.4093C28.2444 15.5569 27.2639 15.6431 26.2861 15.668C26.2713 15.6686 26.2639 15.6759 26.2639 15.6898V19.9218C26.2639 19.9305 26.2675 19.9388 26.2739 19.945C26.2803 19.9512 26.289 19.9547 26.2981 19.9547H29.9269C29.9279 19.9547 29.9288 19.9546 29.9296 19.9544C29.9303 19.9542 29.931 19.954 29.9317 19.9538C29.9331 19.9532 29.9345 19.9523 29.9356 19.9512C29.9368 19.9502 29.9376 19.9489 29.9382 19.9475C29.9388 19.9461 29.939 19.9446 29.939 19.9431C29.9034 18.6627 29.7415 17.368 29.4299 16.1191ZM17.9565 27.0462C18.7392 26.725 19.5321 26.4692 20.3351 26.2787C20.3358 26.2785 20.3365 26.2783 20.3372 26.2781C20.338 26.2778 20.3389 26.2774 20.3397 26.277C20.3402 26.2768 20.3407 26.2765 20.3412 26.2762C20.3417 26.276 20.3422 26.2756 20.3427 26.2753C20.3449 26.2737 20.3469 26.2718 20.3483 26.2695C20.3498 26.2672 20.3508 26.2647 20.3512 26.2621C20.3516 26.2595 20.3515 26.2568 20.3508 26.2542C20.2728 25.9354 20.1954 25.6222 20.1187 25.3147C20.0564 25.0646 20.0103 24.8085 19.9646 24.5553V24.5553L19.9646 24.5551V24.555C19.9468 24.4564 19.9291 24.3584 19.9106 24.2613C19.8622 24.0056 19.8229 23.7444 19.7927 23.4778C19.7827 23.3904 19.7721 23.3025 19.7615 23.2144V23.2144C19.7287 22.9431 19.6957 22.6696 19.6803 22.3996C19.6615 22.0686 19.6435 21.7339 19.6262 21.3956C19.6259 21.3906 19.6236 21.386 19.6198 21.3826C19.616 21.3792 19.6111 21.3773 19.6059 21.3773H15.2358C15.2186 21.3773 15.2105 21.3856 15.2118 21.4022C15.2546 21.9441 15.3395 22.4695 15.4666 22.9782C15.8522 24.5249 16.5905 25.9092 17.6814 27.1311C17.6934 27.1448 17.7081 27.148 17.7253 27.1409C17.7257 27.1409 17.8027 27.1093 17.9565 27.0462ZM21.8046 25.9396C21.8073 25.9489 21.8135 25.957 21.822 25.9623C21.8306 25.9675 21.8408 25.9696 21.8508 25.968C22.8339 25.8083 23.8021 25.7105 24.7556 25.6747C24.7632 25.6744 24.7705 25.6713 24.7759 25.666C24.7812 25.6607 24.7842 25.6536 24.7842 25.6462V21.4107C24.7842 21.4018 24.7805 21.3933 24.7739 21.3871C24.7673 21.3808 24.7584 21.3773 24.7491 21.3773H21.1332C21.1171 21.3773 21.1093 21.385 21.1096 21.4004C21.1534 22.9364 21.385 24.4495 21.8046 25.9396ZM29.2523 25.8662C29.2534 25.8664 29.2546 25.8664 29.2557 25.8662C29.257 25.8659 29.2583 25.8654 29.2595 25.8647C29.2617 25.8632 29.2632 25.8611 29.2639 25.8587C29.6699 24.4077 29.8949 22.9219 29.939 21.4013C29.9396 21.3853 29.9316 21.3773 29.9149 21.3773H26.2875C26.2717 21.3773 26.2639 21.3848 26.2639 21.3996V25.6311C26.2639 25.6336 26.2644 25.636 26.2654 25.6383C26.2663 25.6405 26.2678 25.6426 26.2696 25.6443C26.2714 25.646 26.2735 25.6474 26.2759 25.6484C26.2767 25.6487 26.2776 25.649 26.2785 25.6492C26.2793 25.6494 26.28 25.6495 26.2808 25.6496C26.2812 25.6497 26.2816 25.6497 26.282 25.6497C26.2824 25.6498 26.2829 25.6498 26.2833 25.6498C27.2589 25.6572 28.2486 25.7293 29.2523 25.8662ZM33.3607 26.9182C33.4051 26.936 33.4502 26.9499 33.4962 26.96C33.51 26.963 33.5214 26.9591 33.5304 26.9484C34.8969 25.3339 35.6691 23.4806 35.847 21.3884C35.8471 21.387 35.8469 21.3856 35.8464 21.3843C35.8459 21.3829 35.8452 21.3817 35.8442 21.3806C35.8432 21.3796 35.842 21.3788 35.8406 21.3782C35.8402 21.378 35.8399 21.3779 35.8396 21.3778C35.8392 21.3777 35.839 21.3776 35.8386 21.3776C35.8378 21.3774 35.8371 21.3773 35.8363 21.3773H31.4454C31.4391 21.3773 31.433 21.3797 31.4284 21.3839C31.4238 21.3881 31.4212 21.3939 31.4209 21.4C31.408 21.8053 31.3863 22.1902 31.3557 22.5547C31.2522 23.7858 31.0481 24.9679 30.7435 26.1009C30.7425 26.1048 30.7423 26.1088 30.7429 26.1127C30.7435 26.1166 30.7449 26.1204 30.7471 26.1238C30.7492 26.1272 30.7521 26.1301 30.7555 26.1325C30.7575 26.1339 30.7597 26.135 30.762 26.136C30.7635 26.1365 30.765 26.137 30.7667 26.1373C31.668 26.3267 32.5327 26.587 33.3607 26.9182ZM28.7774 27.28C28.7808 27.272 28.7842 27.2644 28.7876 27.2573C28.7916 27.2481 28.7885 27.2431 28.7784 27.2422C28.7582 27.2401 28.738 27.2379 28.7177 27.2357C28.6969 27.2335 28.6762 27.2313 28.6554 27.2291L28.6081 27.224L28.6048 27.2236H28.6046H28.6046C28.1139 27.1708 27.6009 27.1156 27.1082 27.0978C26.8502 27.0883 26.578 27.077 26.2916 27.064C26.2731 27.0631 26.2639 27.0716 26.2639 27.0893V30.4249C26.2639 30.4424 26.2719 30.4471 26.2879 30.4391C26.6785 30.2504 27.0359 29.9768 27.3602 29.6182C27.9789 28.9347 28.4145 28.1382 28.7774 27.28ZM24.7583 30.4373C24.7756 30.4456 24.7842 30.4404 24.7842 30.4218V27.1196C24.7842 27.1015 24.775 27.093 24.7565 27.0942C23.9118 27.1387 23.0987 27.2208 22.3169 27.3404C22.3058 27.3419 22.3024 27.3477 22.3067 27.3578C22.6077 28.0622 22.9767 28.7498 23.4622 29.3569C23.8183 29.8031 24.2349 30.1809 24.7583 30.4373ZM30.2668 27.5138C29.9371 28.4044 29.4849 29.2547 28.9268 30.0209C28.9052 30.0508 28.9123 30.0596 28.9481 30.0471C30.232 29.605 31.3849 28.9539 32.4068 28.0938C32.4086 28.0922 32.4099 28.0903 32.4108 28.088C32.4116 28.0858 32.4117 28.0835 32.4112 28.0812C32.411 28.08 32.4106 28.079 32.4101 28.078C32.4096 28.0769 32.4089 28.0759 32.4081 28.075C32.4065 28.0732 32.4044 28.0719 32.4021 28.0711C32.2815 28.0345 32.1591 27.9957 32.0357 27.9566L32.0332 27.9558L32.0329 27.9557C31.7121 27.854 31.3839 27.75 31.0607 27.6751C30.803 27.6152 30.5509 27.5551 30.3043 27.4947C30.2966 27.4929 30.2885 27.4938 30.2816 27.4974C30.2747 27.5009 30.2694 27.5068 30.2668 27.5138ZM22.1121 30.0453C22.146 30.0566 22.1526 30.048 22.1319 30.0196C21.5987 29.2912 21.1663 28.4999 20.8349 27.6453C20.8341 27.6435 20.833 27.6417 20.8317 27.6403C20.8303 27.6387 20.8286 27.6374 20.8267 27.6365C20.8229 27.6346 20.8186 27.6341 20.8146 27.6351C20.1503 27.7886 19.4914 27.9876 18.8379 28.232C18.8361 28.2326 18.8345 28.2337 18.8332 28.2352C18.833 28.2355 18.8327 28.2358 18.8325 28.2361C18.8317 28.2373 18.8312 28.2387 18.831 28.2401C18.8307 28.2419 18.8309 28.2438 18.8316 28.2455C18.8324 28.2472 18.8336 28.2487 18.8351 28.2498C19.0179 28.3843 19.2045 28.5221 19.395 28.6631C19.7053 28.8924 20.0761 29.1169 20.397 29.2942C20.9507 29.5997 21.5224 29.8501 22.1121 30.0453ZM9.3369 15.6919C9.46433 15.057 9.72038 14.4616 10.1051 13.9056C10.1444 13.8492 10.1817 13.7941 10.2171 13.7404C10.3475 13.5439 10.3563 13.3459 10.2488 13.1269C10.1513 12.9289 9.87593 12.89 9.66671 12.8981C9.51593 12.9039 9.36612 13.0228 9.30046 13.1396C9.27223 13.1901 9.23842 13.2336 9.20484 13.2769C9.16171 13.3325 9.11897 13.3876 9.08895 13.4561C9.06049 13.521 9.02254 13.5791 8.98476 13.637C8.94076 13.7045 8.89697 13.7716 8.86863 13.8486C8.83953 13.9282 8.79715 13.9997 8.75512 14.0707C8.70448 14.1561 8.65435 14.2407 8.62861 14.3376C8.58683 14.4959 8.52433 14.653 8.44113 14.8089C8.40929 14.8684 8.38814 14.934 8.37406 14.9994C8.21899 15.7071 8.11035 16.3728 8.04816 16.9963C8.04311 17.0495 8.03812 17.1108 8.04727 17.1631C8.07651 17.3299 8.08626 17.4899 8.07652 17.6432C8.06885 17.7674 8.08924 17.8864 8.10975 18.0061C8.12585 18.1001 8.14203 18.1945 8.1448 18.2923C8.14751 18.3763 8.1664 18.4576 8.1855 18.5397C8.19766 18.592 8.20989 18.6446 8.21809 18.6986C8.23284 18.7944 8.25288 18.8941 8.27822 18.9976C8.33721 19.2412 8.39543 19.4563 8.45291 19.643C8.54699 19.9481 8.68827 20.3264 8.87676 20.7779C8.90725 20.8514 8.94365 20.921 8.97997 20.9905C9.01702 21.0614 9.05398 21.1321 9.08447 21.2065C9.13304 21.3244 9.19064 21.4347 9.25729 21.5376C9.34077 21.6668 9.41382 21.7998 9.48723 21.9334C9.58199 22.1059 9.67735 22.2795 9.79651 22.4476C10.2315 23.06 10.6819 23.6522 11.1476 24.224C11.3451 24.4663 11.5702 24.6924 11.7905 24.9136L11.7906 24.9137L11.7907 24.9138C11.8456 24.9689 11.9002 25.0237 11.954 25.0784C12.0956 25.2225 12.2457 25.266 12.4043 25.2089C12.562 25.1523 12.656 25.1071 12.6866 25.0733C12.915 24.8208 12.9255 24.5676 12.7181 24.3136C12.5574 24.1163 12.3821 23.9285 12.2086 23.7426C12.0185 23.539 11.8306 23.3377 11.6662 23.1287L11.6629 23.1244C11.3084 22.6736 10.9503 22.2182 10.6481 21.7316C10.4712 21.4474 10.3267 21.2023 10.2144 20.9961C10.0486 20.6924 9.8885 20.357 9.73412 19.9899C9.69069 19.8868 9.65487 19.7784 9.61892 19.6697L9.61891 19.6697C9.58863 19.5781 9.55825 19.4863 9.52314 19.3969C9.46718 19.254 9.42075 19.1053 9.38386 18.9508C9.29267 18.5697 9.22758 18.194 9.18858 17.8239C9.14754 17.4321 9.14334 17.0704 9.176 16.7388C9.20724 16.4195 9.26087 16.0705 9.3369 15.6919ZM46.379 15.5624V16.8H41.6495V11.1378H46.2696V12.3754H43.299V13.3299H45.9162V14.527H43.299V15.5624H46.379ZM50.9741 16.8L49.7538 15.0447L48.5504 16.8H46.6485L48.7944 13.9365L46.7411 11.1378H48.6177L49.7959 12.7717L50.9572 11.1378H52.7582L50.7048 13.8718L52.8928 16.8H50.9741ZM55.9712 11.1378C56.5043 11.1378 56.9672 11.224 57.3597 11.3966C57.7528 11.5638 58.0556 11.8064 58.2688 12.1246C58.482 12.4374 58.5888 12.8068 58.5888 13.2328C58.5888 13.6588 58.482 14.0282 58.2688 14.341C58.0556 14.6537 57.7528 14.8964 57.3597 15.069C56.9672 15.2361 56.5043 15.3197 55.9712 15.3197H54.9447V16.8H53.2784V11.1378H55.9712ZM55.8704 14.0579C56.2126 14.0579 56.4706 13.9878 56.6444 13.8476C56.8187 13.702 56.9057 13.497 56.9057 13.2328C56.9057 12.9686 56.8187 12.7636 56.6444 12.618C56.4706 12.4724 56.2126 12.3996 55.8704 12.3996H54.9447V14.0579H55.8704ZM61.9763 15.2955H61.0672V16.8H59.4012V11.1378H62.0942C62.6269 11.1378 63.0897 11.224 63.4827 11.3966C63.8753 11.5638 64.1782 11.8064 64.3913 12.1246C64.6045 12.4374 64.7113 12.8068 64.7113 13.2328C64.7113 13.6426 64.6101 14.0012 64.4084 14.3086C64.2119 14.6106 63.9285 14.8479 63.5581 15.0204L64.8292 16.8H63.0449L61.9763 15.2955ZM63.0282 13.2328C63.0282 12.9686 62.9413 12.7636 62.7674 12.618C62.5931 12.4724 62.3351 12.3996 61.9929 12.3996H61.0672V14.0579H61.9929C62.3351 14.0579 62.5931 13.9878 62.7674 13.8476C62.9413 13.702 63.0282 13.497 63.0282 13.2328ZM70.3599 15.5624V16.8H65.6306V11.1378H70.2508V12.3754H67.2799V13.3299H69.897V14.527H67.2799V15.5624H70.3599ZM73.3548 16.9132C72.8781 16.9132 72.4152 16.8566 71.9663 16.7434C71.5177 16.6301 71.1529 16.4792 70.8722 16.2904L71.4192 15.1094C71.6828 15.2766 71.9889 15.4114 72.3366 15.5139C72.6843 15.6163 73.0265 15.6676 73.3631 15.6676C74.0031 15.6676 74.3226 15.5139 74.3226 15.2065C74.3226 15.0447 74.2301 14.9261 74.0452 14.8506C73.8653 14.7697 73.5735 14.6861 73.1699 14.5998C72.7264 14.5081 72.356 14.4111 72.0587 14.3086C71.7614 14.2008 71.5062 14.0309 71.293 13.799C71.0798 13.5672 70.9735 13.2544 70.9735 12.8607C70.9735 12.5156 71.0715 12.2055 71.268 11.9305C71.4641 11.6501 71.7559 11.429 72.1429 11.2672C72.5359 11.1054 73.0154 11.0245 73.5823 11.0245C73.9693 11.0245 74.3508 11.0677 74.7267 11.154C75.1027 11.2348 75.4337 11.3562 75.7195 11.518L75.2062 12.707C74.6453 12.4158 74.1011 12.2702 73.5735 12.2702C73.2429 12.2702 73.0015 12.3188 72.8499 12.4158C72.6987 12.5075 72.6228 12.6288 72.6228 12.7798C72.6228 12.9308 72.7126 13.044 72.892 13.1196C73.0714 13.1951 73.3604 13.2732 73.7589 13.3541C74.2075 13.4458 74.5778 13.5456 74.8696 13.6534C75.1669 13.7559 75.4222 13.9231 75.6353 14.1549C75.8545 14.3814 75.9636 14.6915 75.9636 15.0852C75.9636 15.4249 75.8656 15.7323 75.6691 16.0073C75.473 16.2823 75.1785 16.5034 74.7855 16.6706C74.3929 16.8324 73.9162 16.9132 73.3548 16.9132ZM78.8036 16.9132C78.3269 16.9132 77.8641 16.8566 77.4151 16.7434C76.9661 16.6301 76.6017 16.4792 76.3211 16.2904L76.8681 15.1094C77.1316 15.2766 77.4377 15.4114 77.7855 15.5139C78.1332 15.6163 78.4753 15.6676 78.812 15.6676C79.4514 15.6676 79.7714 15.5139 79.7714 15.2065C79.7714 15.0447 79.679 14.9261 79.4935 14.8506C79.3141 14.7697 79.0224 14.6861 78.6187 14.5998C78.1752 14.5081 77.8049 14.4111 77.5076 14.3086C77.2102 14.2008 76.955 14.0309 76.7418 13.799C76.5287 13.5672 76.4219 13.2544 76.4219 12.8607C76.4219 12.5156 76.5203 12.2055 76.7164 11.9305C76.9129 11.6501 77.2047 11.429 77.5917 11.2672C77.9847 11.1054 78.4642 11.0245 79.0307 11.0245C79.4182 11.0245 79.7996 11.0677 80.1756 11.154C80.5515 11.2348 80.8821 11.3562 81.1683 11.518L80.6551 12.707C80.0942 12.4158 79.5499 12.2702 79.0224 12.2702C78.6913 12.2702 78.4504 12.3188 78.2987 12.4158C78.147 12.5075 78.0717 12.6288 78.0717 12.7798C78.0717 12.9308 78.1614 13.044 78.3408 13.1196C78.5202 13.1951 78.8092 13.2732 79.2078 13.3541C79.6563 13.4458 80.0267 13.5456 80.3184 13.6534C80.6158 13.7559 80.871 13.9231 81.0842 14.1549C81.3029 14.3814 81.4125 14.6915 81.4125 15.0852C81.4125 15.4249 81.3144 15.7323 81.1179 16.0073C80.9214 16.2823 80.6269 16.5034 80.2343 16.6706C79.8417 16.8324 79.3645 16.9132 78.8036 16.9132ZM42.3732 24.9817C42.7884 25.1111 43.2176 25.1758 43.6608 25.1758C44.1602 25.1758 44.5809 25.1057 44.9232 24.9655C45.2654 24.8199 45.5207 24.6258 45.689 24.3831C45.8573 24.1351 45.9414 23.8627 45.9414 23.5661C45.9414 23.2102 45.8433 22.9271 45.6469 22.7168C45.4562 22.5065 45.2261 22.3501 44.9568 22.2476C44.6875 22.1452 44.3312 22.0427 43.888 21.9403C43.5458 21.8648 43.2737 21.7947 43.0717 21.73C42.8754 21.6599 42.7099 21.5655 42.5752 21.4468C42.4406 21.3228 42.3732 21.1637 42.3732 20.9696C42.3732 20.7054 42.4911 20.4896 42.7267 20.3225C42.9679 20.1553 43.327 20.0717 43.8039 20.0717C44.0732 20.0717 44.3481 20.1122 44.6286 20.1931C44.9091 20.2686 45.1728 20.3818 45.4197 20.5328L45.6974 19.8857C45.4562 19.7239 45.1672 19.5999 44.8306 19.5136C44.494 19.4273 44.1517 19.3842 43.8039 19.3842C43.3046 19.3842 42.8866 19.457 42.55 19.6026C42.2134 19.7482 41.9609 19.9423 41.7926 20.185C41.6299 20.4276 41.5485 20.7 41.5485 21.002C41.5485 21.3632 41.6439 21.6518 41.8347 21.8675C42.031 22.0778 42.2638 22.2342 42.5331 22.3366C42.808 22.4391 43.1671 22.5416 43.6103 22.644C43.9638 22.7249 44.2359 22.7977 44.4266 22.8624C44.623 22.9271 44.7857 23.0215 44.9147 23.1455C45.0494 23.2641 45.1167 23.4205 45.1167 23.6147C45.1167 23.8789 44.9961 24.0919 44.7548 24.2537C44.5136 24.4101 44.1489 24.4883 43.6608 24.4883C43.2905 24.4883 42.9287 24.4289 42.5752 24.3103C42.2274 24.1863 41.9412 24.0272 41.7168 23.8331L41.4055 24.464C41.6411 24.6743 41.9637 24.8469 42.3732 24.9817ZM52.237 25.1111V19.4489H51.3955V21.8836H48.0124V19.4489H47.1709V25.1111H48.0124V22.5874H51.3955V25.1111H52.237ZM54.842 19.4489H54.0003V25.1111H54.842V19.4489ZM60.7038 19.9747C60.2663 19.6241 59.6662 19.4489 58.9027 19.4489H56.6056V25.1111H57.4471V23.3963H58.9027C59.6662 23.3963 60.2663 23.221 60.7038 22.8705C61.1416 22.52 61.3604 22.0373 61.3604 21.4226C61.3604 20.8078 61.1416 20.3252 60.7038 19.9747ZM60.098 22.369C59.8174 22.5847 59.4105 22.6925 58.8778 22.6925H57.4471V20.1526H58.8778C59.4105 20.1526 59.8174 20.2632 60.098 20.4843C60.3782 20.7 60.5188 21.0128 60.5188 21.4226C60.5188 21.8324 60.3782 22.1479 60.098 22.369ZM66.695 19.9747C66.2576 19.6241 65.6569 19.4489 64.894 19.4489H62.5968V25.1111H63.4384V23.3963H64.894C65.6569 23.3963 66.2576 23.221 66.695 22.8705C67.1324 22.52 67.3516 22.0373 67.3516 21.4226C67.3516 20.8078 67.1324 20.3252 66.695 19.9747ZM66.0892 22.369C65.8086 22.5847 65.4017 22.6925 64.869 22.6925H63.4384V20.1526H64.869C65.4017 20.1526 65.8086 20.2632 66.0892 20.4843C66.3695 20.7 66.51 21.0128 66.51 21.4226C66.51 21.8324 66.3695 22.1479 66.0892 22.369ZM69.4291 19.4489H68.5875V25.1111H69.4291V19.4489ZM76.2591 25.1111V19.4489H75.4175V23.6713L71.883 19.4489H71.1931V25.1111H72.0347V20.8887L75.5692 25.1111H76.2591ZM82.912 22.2476H82.1037V24.0919C81.7112 24.3346 81.2511 24.4559 80.724 24.4559C80.2805 24.4559 79.8796 24.3616 79.5203 24.1728C79.1671 23.984 78.8892 23.7252 78.6871 23.3963C78.4851 23.0619 78.3842 22.6898 78.3842 22.28C78.3842 21.8648 78.4851 21.4927 78.6871 21.1637C78.8892 20.8294 79.1671 20.5705 79.5203 20.3872C79.8796 20.1984 80.2833 20.1041 80.7323 20.1041C81.4 20.1041 81.9692 20.3225 82.4404 20.7593L82.9624 20.2578C82.6928 19.972 82.365 19.7563 81.9775 19.6107C81.596 19.4597 81.1697 19.3842 80.6985 19.3842C80.0983 19.3842 79.5569 19.5082 79.0741 19.7563C78.5974 20.0043 78.2215 20.3495 77.9468 20.7916C77.6773 21.2338 77.5427 21.73 77.5427 22.28C77.5427 22.83 77.6773 23.3262 77.9468 23.7684C78.2215 24.2052 78.5974 24.5503 79.0741 24.8037C79.5513 25.0518 80.0868 25.1758 80.6819 25.1758C81.1027 25.1758 81.5063 25.1138 81.8933 24.9898C82.2808 24.8657 82.6202 24.6878 82.912 24.4559V22.2476Z" fill="black"/>
</g>
<defs>
<clipPath id="clip0_1_1084">
<rect width="75" height="28" fill="white" transform="translate(7.99957 4)"/>
</clipPath>
</defs>
</svg>
